Coordinates
version=1
nRows=8
nColumns=36
inDegrees=yes

Units are S.I. units (second, meters, Newtons, ...)
If the header above contains a line with 'inDegrees', this indicates whether rotational values are in degrees (yes) or radians (no).

endheader
time	pelvis_tilt	pelvis_list	pelvis_rotation	pelvis_tx	pelvis_ty	pelvis_tz	hip_flexion_r	hip_adduction_r	hip_rotation_r	knee_angle_r	knee_angle_r_beta	ankle_angle_r	subtalar_angle_r	mtp_angle_r	hip_flexion_l	hip_adduction_l	hip_rotation_l	knee_angle_l	knee_angle_l_beta	ankle_angle_l	subtalar_angle_l	mtp_angle_l	lumbar_extension	lumbar_bending	lumbar_rotation	arm_flex_r	arm_add_r	arm_rot_r	elbow_flex_r	pro_sup_r	arm_flex_l	arm_add_l	arm_rot_l	elbow_flex_l	pro_sup_l
      1.45000000	     -6.04458106	     -3.11127809	      0.52869247	     -0.51216666	      1.10793735	     -0.59300033	     30.90386633	     -2.81032063	      1.07829531	     19.10623994	      0.33346679	    -25.23594255	     -7.83311212	     -5.65499694	     27.23528566	     -6.44609313	      1.24327767	      9.90481091	      0.17287156	    -27.40068249	      2.35196309	     -5.65499694	    -21.89521938	      1.70021678	     -0.30483319	      3.49965086	    -23.46837117	    -13.44298487	    122.16987453	    108.52077689	     -5.94697527	    -20.27613916	     -4.80058313	    112.93022170	     99.18205669
      1.46000000	     -5.24685516	     -3.07389901	      0.27304673	     -0.49972661	      1.08601804	     -0.59255007	     30.22464680	     -2.79646773	      1.33190346	     19.53370169	      0.34092741	    -25.45884588	     -8.14876203	     -5.69719592	     26.54060633	     -6.69540619	      0.97477944	     10.04391247	      0.17529934	    -28.03437634	      2.70067645	     -5.69719592	    -22.04042373	      1.57768110	      0.02363287	      2.90730494	    -23.52269888	    -13.83261359	    123.35389919	    108.43258798	     -6.99364806	    -20.16564748	     -5.36826607	    113.67021299	     99.01681073
      1.47000000	     -4.50624577	     -3.05259431	      0.06383050	     -0.48764412	      1.06315711	     -0.59218478	     29.74532184	     -2.77106393	      1.72733766	     20.31702576	      0.35459899	    -25.51774485	     -8.35861967	     -5.73773493	     26.04894554	     -6.88552070	      1.03130860	     10.61433021	      0.18525501	    -28.36638621	      2.68425129	     -5.73773493	    -22.23509371	      1.53900431	      0.25670314	      2.54283277	    -23.65437196	    -13.92788843	    124.57987083	    108.12948447	     -7.90175633	    -20.08184512	     -5.80232872	    114.29584805	     98.72716501
      1.48000000	     -3.71531883	     -3.01443131	     -0.07800978	     -0.47591851	      1.03947217	     -0.59201461	     29.35683276	     -2.75859615	      2.13765977	     21.48003288	      0.37489730	    -25.55353862	     -9.40030842	     -5.83454747	     25.70818995	     -6.94820782	      1.30900889	     11.72437652	      0.20462897	    -28.65712836	      1.37968427	     -5.83454747	    -22.56344099	      1.47693923	      0.37567109	      2.38582850	    -23.72908446	    -14.06469019	    125.63185717	    108.33155002	     -8.67815682	    -19.91399262	     -6.28219263	    114.78916039	     98.43911344
      1.49000000	     -2.90620955	     -2.98759607	     -0.16525449	     -0.46482864	      1.01468159	     -0.59191658	     29.21511039	     -2.76858260	      2.44302050	     23.12316831	      0.40357542	    -25.21282494	     -9.76452930	     -5.93808463	     25.66960211	     -6.97448769	      1.78899054	     13.32678651	      0.23259630	    -29.48547839	     -0.25711178	     -5.93808463	    -22.94193066	      1.42397344	      0.59130969	      2.28060668	    -23.90989386	    -14.18858698	    126.68796727	    108.41964571	     -9.07110514	    -19.77474512	     -6.42051787	    115.00539896	     98.13770582
      1.50000000	     -2.05985995	     -2.92737722	     -0.25468561	     -0.45450894	      0.98894497	     -0.59168640	     29.28022144	     -2.79547852	      2.74492938	     24.88786386	      0.43437517	    -25.29194142	     -9.61086934	     -6.00644020	     25.95242670	     -7.00281869	      2.15334977	     15.64168631	      0.27299893	    -29.29195412	     -1.46834735	     -6.00644020	    -23.52026324	      1.32014689	      0.72483863	      2.44080543	    -24.12045776	    -14.06194883	    127.77120713	    107.79140697	     -9.34895344	    -19.65645852	     -6.54438863	    115.16998725	     97.55689013
      1.51000000	     -1.49943906	     -2.69803480	     -0.30640500	     -0.44522710	      0.96199269	     -0.59174347	     30.00005574	     -3.01799322	      2.93012679	     27.21466962	      0.47498559	    -24.25824110	     -9.90519161	     -6.11637714	     26.87945258	     -6.61258461	      3.12634633	     19.58220779	      0.34177400	    -24.37580711	     -4.28426755	     -6.11637714	    -24.05654441	      1.05682484	      0.68813755	      2.79719665	    -24.33742647	    -13.82438652	    128.74511607	    106.38073562	     -9.50832407	    -19.51054233	     -6.63020142	    115.21862976	     96.39421124
      1.52000000	     -1.35856359	     -2.69877338	     -0.25533886	     -0.43696564	      0.93346460	     -0.59195688	     31.56557456	     -2.99436359	      2.57049062	     31.29063744	      0.54612465	    -18.74202335	    -12.29161484	     -6.45631509	     29.00271697	     -6.25128258	      4.07969528	     26.29284242	      0.45889667	    -11.77866558	     -6.54645086	     -6.45631509	    -24.41168531	      1.05202926	      0.52579595	      3.39130298	    -24.59866205	    -13.89724839	    129.08157685	    110.55952881	     -9.56868609	    -19.18567567	     -7.02415448	    114.76978500	     98.31582430
